<?xml version="1.0" standalone="no"?>
<!DOCTYPE svg PUBLIC "-//W3C//DTD SVG 20010904//EN"
 "http://www.w3.org/TR/2001/REC-SVG-20010904/DTD/svg10.dtd">
<svg version="1.0" xmlns="http://www.w3.org/2000/svg"
 width="200.000000pt" height="200.000000pt" viewBox="0 0 200.000000 200.000000"
 preserveAspectRatio="xMidYMid meet">
<metadata>
Created by potrace 1.11, written by Peter Selinger 2001-2013
</metadata>
<g transform="translate(0.000000,200.000000) scale(0.100000,-0.100000)"
fill="#000000" stroke="none">
<path d="M940 1813 c-51 -20 -104 -69 -127 -119 -23 -51 -24 -62 -21 -202 3
-136 1 -150 -20 -193 -28 -58 -42 -70 -176 -158 -83 -53 -118 -71 -145 -71
-47 -1 -132 -31 -142 -50 -40 -77 -41 -90 -8 -90 12 0 16 -5 13 -15 -11 -27
25 -28 77 -1 29 14 56 23 60 20 5 -3 9 -18 9 -35 0 -18 5 -29 14 -29 18 0 31
17 45 62 13 39 32 53 50 35 8 -8 16 -5 31 8 27 24 31 18 20 -30 -25 -107 6
-228 89 -346 28 -40 51 -78 51 -86 0 -7 9 -13 20 -13 25 0 25 -11 -1 -43 -19
-25 -51 -38 -130 -51 -46 -8 -106 -62 -114 -101 -5 -28 -2 -33 37 -55 39 -23
53 -25 148 -24 58 1 135 2 172 3 89 1 110 19 103 90 -3 26 -12 64 -20 84 -8
20 -15 38 -15 41 0 4 71 -4 78 -9 1 -1 -4 -22 -12 -46 -24 -68 -21 -134 6
-153 24 -17 108 -22 108 -7 0 5 21 2 48 -6 55 -17 153 -12 224 13 60 20 73 35
57 66 -7 13 -15 30 -19 38 -13 29 -71 58 -138 70 -59 10 -71 15 -85 40 -22 37
-21 50 3 50 11 0 20 6 20 13 0 7 22 45 50 85 70 104 94 170 95 262 0 41 -4 91
-9 110 -8 35 -8 35 12 17 13 -12 28 -16 44 -12 21 5 27 0 48 -47 31 -65 60
-77 60 -24 0 44 11 45 74 10 48 -27 71 -24 63 7 -4 16 -1 18 19 13 31 -8 31 7
1 65 -25 50 -62 69 -135 70 -35 1 -61 12 -135 60 -51 33 -104 69 -119 80 -14
12 -29 21 -33 21 -19 0 26 -35 116 -90 l99 -61 -21 -32 c-47 -68 -48 -69 -78
-47 -24 16 -120 188 -125 224 -1 7 -9 24 -17 37 -29 44 -33 73 -34 240 l0 165
-30 50 c-41 66 -109 104 -185 103 -30 0 -62 -3 -70 -6z m40 -214 c0 -10 -14
-28 -31 -40 -26 -18 -33 -19 -40 -8 -16 26 -9 57 18 79 26 20 28 20 40 4 7
-10 13 -26 13 -35z m128 -13 c2 -27 -1 -36 -12 -36 -8 0 -18 5 -21 10 -3 6 -1
10 4 10 6 0 11 11 11 25 0 33 -28 33 -32 0 -2 -16 -7 -22 -15 -17 -8 5 -8 16
3 41 13 32 15 33 37 19 15 -10 23 -27 25 -52z m-70 -25 c8 -4 13 -12 13 -17
-1 -5 8 -10 20 -10 61 -4 39 -51 -37 -80 -51 -19 -92 -8 -118 31 -14 21 -14
25 1 37 9 7 26 13 37 13 12 0 21 6 22 13 1 6 2 14 3 17 2 8 45 5 59 -4z m62
-98 c-34 -43 -85 -76 -108 -69 -29 9 -70 44 -83 69 -11 20 -10 20 15 -3 38
-34 101 -33 153 3 48 33 49 33 23 0z m8 -71 c0 -32 6 -71 12 -86 6 -16 9 -31
7 -33 -8 -8 -175 -18 -171 -11 3 4 -11 8 -31 8 -31 0 -36 3 -30 18 10 25 21
94 19 119 -1 22 -1 22 25 4 55 -39 99 -33 145 18 11 12 20 21 21 21 1 0 2 -26
3 -58z m-243 -132 c43 -11 108 -20 144 -20 60 0 171 18 212 35 11 4 20 -4 31
-32 9 -21 41 -92 71 -158 31 -66 59 -136 62 -157 6 -33 3 -40 -36 -78 -79 -77
-218 -130 -340 -130 -119 0 -290 64 -359 135 -32 33 -32 33 -21 87 11 51 140
338 152 338 3 0 41 -9 84 -20z m-180 -142 c-49 -97 -80 -138 -101 -138 -7 0
-27 21 -44 46 -37 52 -40 46 65 108 33 20 74 47 90 60 17 13 32 23 34 21 2 -2
-18 -46 -44 -97z m973 -78 c42 -16 42 -31 0 -19 -41 11 -41 11 -33 -1 3 -5 16
-10 29 -10 12 0 31 -7 42 -15 18 -14 17 -15 -11 -9 -16 4 -40 11 -52 15 -14 5
-23 5 -23 -1 0 -6 7 -10 15 -10 23 0 95 -31 95 -41 0 -11 -57 0 -92 18 -16 7
-28 10 -28 5 0 -5 18 -17 40 -27 40 -18 52 -35 26 -35 -8 0 -31 9 -50 21 -19
11 -45 19 -58 17 -19 -3 -23 -8 -20 -36 3 -46 -19 -37 -36 14 -7 21 -20 46
-29 56 -14 16 -14 20 10 51 25 33 26 33 84 26 32 -4 73 -13 91 -19z m-1134
-12 c24 -31 24 -32 6 -56 -10 -13 -24 -39 -30 -58 -14 -42 -30 -44 -30 -4 0
43 -21 47 -80 16 -27 -14 -55 -26 -61 -26 -19 0 11 29 50 50 20 11 31 19 25
20 -7 0 -25 -7 -40 -15 -16 -8 -40 -15 -54 -15 -24 1 -24 1 -5 16 11 8 37 19
58 25 22 6 37 13 34 16 -3 3 -26 -2 -51 -10 -26 -9 -46 -12 -46 -7 0 5 21 16
48 25 45 15 45 15 10 11 -44 -5 -47 -2 -15 15 29 16 74 27 119 28 30 1 41 -5
62 -31z"/>
<path d="M928 1608 c-7 -19 2 -38 18 -38 8 0 14 10 14 25 0 26 -24 35 -32 13z"/>
<path d="M988 1134 c3 -19 7 -22 13 -12 6 9 9 4 10 -17 1 -23 3 -25 6 -8 4 23
-12 63 -26 63 -5 0 -6 -12 -3 -26z"/>
<path d="M1091 1128 c0 -7 4 -22 9 -33 8 -18 9 -17 9 7 1 15 -3 30 -9 33 -5 3
-10 0 -9 -7z"/>
<path d="M883 1118 c2 -7 9 -13 16 -13 7 0 19 -9 27 -19 8 -11 14 -15 14 -10
0 12 -42 54 -54 54 -4 0 -6 -6 -3 -12z"/>
<path d="M1064 1089 c-19 -22 -19 -22 4 -8 12 8 22 17 22 21 0 12 -6 9 -26
-13z"/>
<path d="M971 1073 c-1 -19 4 -23 29 -23 17 0 30 4 30 9 0 4 -11 6 -24 4 -17
-4 -25 0 -29 14 -4 15 -5 14 -6 -4z"/>
<path d="M800 1060 c0 -5 5 -10 10 -10 6 0 15 -10 20 -22 5 -14 9 -17 9 -7 1
8 -4 20 -11 27 -21 21 6 12 35 -12 24 -20 26 -24 13 -35 -8 -7 -21 -9 -27 -5
-8 5 -9 3 -4 -6 6 -9 -3 -11 -43 -5 -32 4 -52 3 -57 -4 -3 -6 0 -11 8 -11 7 0
24 -11 37 -25 28 -30 50 -32 57 -5 3 11 4 22 4 25 -1 4 10 16 25 27 l27 21
-34 28 c-34 28 -69 38 -69 19z m32 -90 c11 0 15 -6 11 -20 -7 -27 -25 -25 -54
6 l-24 27 25 -6 c14 -4 32 -7 42 -7z"/>
<path d="M1091 1058 c0 -9 -5 -18 -11 -20 -5 -1 2 -8 17 -15 14 -7 23 -10 19
-6 -3 3 0 13 7 22 10 14 10 14 -5 3 -14 -11 -17 -10 -21 10 -2 13 -5 16 -6 6z"/>
<path d="M1155 1059 c-18 -9 -18 -9 3 -5 27 5 27 1 3 -30 -10 -13 -22 -20 -26
-16 -4 4 3 -12 16 -35 13 -24 26 -43 29 -43 10 0 80 62 80 71 0 13 -13 11 -36
-6 -19 -15 -19 -15 1 -9 15 4 12 -1 -10 -20 -27 -24 -31 -24 -42 -10 -7 10
-10 21 -6 27 3 6 1 7 -5 3 -19 -12 -14 9 9 38 24 30 15 49 -16 35z"/>
<path d="M940 1045 c-11 -13 -10 -14 4 -9 9 3 16 10 16 15 0 13 -6 11 -20 -6z"/>
<path d="M1040 1050 c0 -5 5 -10 11 -10 5 0 7 5 4 10 -3 6 -8 10 -11 10 -2 0
-4 -4 -4 -10z"/>
</g>
</svg>
